<svg width="56" height="43" viewBox="0 0 56 43" fill="none" xmlns="http://www.w3.org/2000/svg">
<path d="M47.4073 3.56445C43.8385 1.91435 40.0101 0.6989 36.0086 0.00270649C35.936 -0.0101148 35.8635 0.0232203 35.8253 0.0898908C35.3327 0.971992 34.788 2.12206 34.4062 3.02724C30.1017 2.37848 25.8189 2.37848 21.6036 3.02724C21.2218 2.10283 20.6567 0.971992 20.1616 0.0898908C20.1234 0.0245024 20.0508 -0.00883263 19.9783 0.00270649C15.9781 0.696336 12.1509 1.91179 8.57957 3.56445C8.54902 3.57727 8.52229 3.60035 8.50447 3.62984C1.24472 14.5561 -0.744587 25.2144 0.231611 35.7394C0.235429 35.7906 0.264702 35.8407 0.304157 35.8714C5.09351 39.4152 9.73395 41.5666 14.2878 42.9923C14.3604 43.0141 14.438 42.9885 14.4838 42.927C15.5606 41.4448 16.5215 39.8832 17.345 38.2395C17.3933 38.1433 17.3475 38.0292 17.2483 37.9908C15.7248 37.4087 14.2751 36.6997 12.8802 35.8932C12.7695 35.8278 12.7605 35.6688 12.8624 35.5932C13.1564 35.3714 13.4491 35.1406 13.7304 34.9085C13.7813 34.8662 13.8513 34.8573 13.9111 34.8842C23.0762 39.0998 32.9985 39.0998 42.0554 34.8842C42.1152 34.8547 42.1852 34.8637 42.2387 34.906C42.5187 35.1393 42.8127 35.3714 43.1079 35.5932C43.2098 35.6688 43.2034 35.8278 43.0927 35.8932C41.6977 36.7151 40.2468 37.4087 38.7221 37.9882C38.6228 38.0267 38.5782 38.1421 38.6266 38.2395C39.4679 39.8806 40.4275 41.4423 41.4852 42.9244C41.5297 42.9872 41.6087 43.0141 41.6812 42.9911C46.2567 41.5653 50.8972 39.4139 55.6865 35.8701C55.7285 35.8394 55.7552 35.7919 55.7591 35.7406C56.9262 23.572 53.8029 13.0022 47.4798 3.63112C47.4646 3.60035 47.4378 3.57727 47.4073 3.56445ZM18.7132 29.33C15.9539 29.33 13.6807 26.7786 13.6807 23.6438C13.6807 20.509 15.9106 17.9576 18.7132 17.9576C21.5387 17.9576 23.7902 20.5321 23.7456 23.6438C23.7469 26.7773 21.517 29.33 18.7132 29.33ZM37.322 29.33C34.5627 29.33 32.2896 26.7786 32.2896 23.6438C32.2896 20.509 34.5194 17.9576 37.322 17.9576C40.1475 17.9576 42.399 20.5321 42.3545 23.6438C42.3545 26.7773 40.1475 29.33 37.322 29.33Z" fill="#582A4C"/>
</svg>
