<svg width="57" height="44" viewBox="0 0 57 44" fill="none" xmlns="http://www.w3.org/2000/svg">
<g clip-path="url(#clip0_48_4)">
<path d="M47.9073 4.06445C44.3385 2.41435 40.5101 1.1989 36.5086 0.502707C36.436 0.489885 36.3635 0.52322 36.3253 0.589891C35.8327 1.47199 35.288 2.62206 34.9062 3.52724C30.6017 2.87848 26.3189 2.87848 22.1036 3.52724C21.7218 2.60283 21.1567 1.47199 20.6616 0.589891C20.6234 0.524502 20.5508 0.491167 20.4783 0.502707C16.4781 1.19634 12.6509 2.41179 9.07957 4.06445C9.04902 4.07727 9.02229 4.10035 9.00447 4.12984C1.74472 15.0561 -0.244587 25.7144 0.731611 36.2394C0.735429 36.2906 0.764702 36.3407 0.804157 36.3714C5.59351 39.9152 10.2339 42.0666 14.7878 43.4923C14.8604 43.5141 14.938 43.4885 14.9838 43.427C16.0606 41.9448 17.0215 40.3832 17.845 38.7395C17.8933 38.6433 17.8475 38.5292 17.7483 38.4908C16.2248 37.9087 14.7751 37.1997 13.3802 36.3932C13.2695 36.3278 13.2605 36.1688 13.3624 36.0932C13.6564 35.8714 13.9491 35.6406 14.2304 35.4085C14.2813 35.3662 14.3513 35.3573 14.4111 35.3842C23.5762 39.5998 33.4985 39.5998 42.5554 35.3842C42.6152 35.3547 42.6852 35.3637 42.7387 35.406C43.0187 35.6393 43.3127 35.8714 43.6079 36.0932C43.7098 36.1688 43.7034 36.3278 43.5927 36.3932C42.1977 37.2151 40.7468 37.9087 39.2221 38.4882C39.1228 38.5267 39.0782 38.6421 39.1266 38.7395C39.9679 40.3806 40.9275 41.9423 41.9852 43.4244C42.0297 43.4872 42.1087 43.5141 42.1812 43.4911C46.7567 42.0653 51.3972 39.9139 56.1865 36.3701C56.2285 36.3394 56.2552 36.2919 56.2591 36.2406C57.4262 24.072 54.3029 13.5022 47.9798 4.13112C47.9646 4.10035 47.9378 4.07727 47.9073 4.06445ZM19.2132 29.83C16.4539 29.83 14.1807 27.2786 14.1807 24.1438C14.1807 21.009 16.4106 18.4576 19.2132 18.4576C22.0387 18.4576 24.2902 21.0321 24.2456 24.1438C24.2469 27.2773 22.017 29.83 19.2132 29.83ZM37.822 29.83C35.0627 29.83 32.7896 27.2786 32.7896 24.1438C32.7896 21.009 35.0194 18.4576 37.822 18.4576C40.6475 18.4576 42.899 21.0321 42.8545 24.1438C42.8545 27.2773 40.6475 29.83 37.822 29.83Z" fill="#FEB27C"/>
</g>
<defs>
<clipPath id="clip0_48_4">
<rect width="56" height="43" fill="white" transform="translate(0.5 0.5)"/>
</clipPath>
</defs>
</svg>
