<svg width="58" height="57" viewBox="0 0 58 57" fill="none" xmlns="http://www.w3.org/2000/svg">
<path d="M29 0.5C13.325 0.5 0.5 13.325 0.5 29C0.5 41.5614 8.74719 52.2774 20.0866 56.0429C21.4297 56.2389 21.9391 55.4053 21.9391 54.6714C21.9391 53.9945 21.9142 52.2026 21.8999 49.8228C13.9734 51.5435 12.299 46.0038 12.299 46.0038C11.0022 42.7121 9.1355 41.8357 9.1355 41.8357C6.54912 40.0687 9.33144 40.1043 9.33144 40.1043C12.1921 40.3074 13.6955 43.0398 13.6955 43.0398C16.2391 47.3968 20.3645 46.1392 21.989 45.4089C22.2491 43.5671 22.9829 42.3095 23.7987 41.6006C17.4717 40.8809 10.817 38.4371 10.817 27.5144C10.817 24.4044 11.9285 21.8608 13.7489 19.8658C13.4568 19.1426 12.4771 16.2427 14.0304 12.3204C14.0304 12.3204 16.4244 11.5544 21.8679 15.2416C24.1408 14.6111 26.5775 14.294 29 14.2833C31.4189 14.294 33.8593 14.6111 36.1357 15.2416C41.5756 11.5544 43.9661 12.3204 43.9661 12.3204C45.5193 16.2427 44.5432 19.1426 44.2511 19.8622C46.0786 21.8536 47.1794 24.3973 47.1794 27.5109C47.1794 38.4584 40.5176 40.8703 34.1656 41.5756C35.1881 42.4556 36.1001 44.1941 36.1001 46.8553C36.1001 50.6671 36.0644 53.738 36.0644 54.6749C36.0644 55.4159 36.5667 56.2531 37.9205 56.0465C49.2564 52.2703 57.5 41.5614 57.5 29C57.5 13.325 44.675 0.5 29 0.5Z" fill="#FEB27C"/>
</svg>
