<svg width="57" height="57" viewBox="0 0 57 57" fill="none" xmlns="http://www.w3.org/2000/svg">
<path d="M28.5 0C12.825 0 0 12.825 0 28.5C0 41.0614 8.24719 51.7774 19.5866 55.5429C20.9297 55.7389 21.4391 54.9053 21.4391 54.1714C21.4391 53.4945 21.4142 51.7026 21.3999 49.3228C13.4734 51.0435 11.799 45.5038 11.799 45.5038C10.5022 42.2121 8.6355 41.3357 8.6355 41.3357C6.04912 39.5687 8.83144 39.6043 8.83144 39.6043C11.6921 39.8074 13.1955 42.5398 13.1955 42.5398C15.7391 46.8968 19.8645 45.6392 21.489 44.9089C21.7491 43.0671 22.4829 41.8095 23.2987 41.1006C16.9717 40.3809 10.317 37.9371 10.317 27.0144C10.317 23.9044 11.4285 21.3608 13.2489 19.3658C12.9568 18.6426 11.9771 15.7427 13.5304 11.8204C13.5304 11.8204 15.9244 11.0544 21.3679 14.7416C23.6408 14.1111 26.0775 13.794 28.5 13.7833C30.9189 13.794 33.3593 14.1111 35.6357 14.7416C41.0756 11.0544 43.4661 11.8204 43.4661 11.8204C45.0193 15.7427 44.0432 18.6426 43.7511 19.3622C45.5786 21.3536 46.6794 23.8973 46.6794 27.0109C46.6794 37.9584 40.0176 40.3703 33.6656 41.0756C34.6881 41.9556 35.6001 43.6941 35.6001 46.3553C35.6001 50.1671 35.5644 53.238 35.5644 54.1749C35.5644 54.9159 36.0667 55.7531 37.4205 55.5465C48.7564 51.7703 57 41.0614 57 28.5C57 12.825 44.175 0 28.5 0Z" fill="#582A4C"/>
</svg>
