<svg width="52" height="47" viewBox="0 0 52 47" fill="none" xmlns="http://www.w3.org/2000/svg">
<path d="M26 0C18.7157 0 8.78563 0.114863 6.7793 0.287908C4.5108 1.61459 0.0433333 6.19435 0 7.52317V9.72212C0 12.5079 2.63947 14.9545 5.03581 14.9545C7.91531 14.9545 10.3171 12.602 10.3171 9.80975C10.3171 12.602 12.6299 14.9545 15.5094 14.9545C18.3889 14.9545 20.6341 12.602 20.6341 9.80975C20.6341 12.602 23.0951 14.9545 25.9746 14.9545H26.0296C28.9091 14.9545 31.3701 12.602 31.3701 9.80975C31.3701 12.602 33.6132 14.9545 36.4906 14.9545C39.3701 14.9545 41.6872 12.602 41.6872 9.80975C41.6872 12.602 44.0847 14.9545 46.9642 14.9545C49.3584 14.9545 52 12.5079 52 9.72212V7.52317C51.9567 6.19649 47.4892 1.61459 45.2207 0.287908C38.1704 0.0422266 33.2843 0 26 0ZM20.5495 16.3148C20.2743 16.7869 19.9325 17.2197 19.5339 17.6C18.4462 18.6468 16.9571 19.2982 15.3148 19.2982C13.7353 19.3003 12.2161 18.6895 11.0872 17.6C10.6929 17.2197 10.3954 16.8141 10.1224 16.3398C9.8494 16.8141 9.46519 17.2176 9.06869 17.6C7.93985 18.6895 6.42065 19.3003 4.84115 19.2982C4.64398 19.2982 4.44092 19.2432 4.27409 19.1855C4.04226 21.5612 3.99137 22.5203 3.95671 24.176V24.1843C3.95237 25.026 3.94834 25.7181 3.94401 26.6795C3.98951 31.6658 3.44415 42.8403 6.17415 45.5855C10.4057 46.5554 18.1892 46.9979 26 47C33.8108 46.9979 41.5943 46.5534 45.8258 45.5813C48.5558 42.8361 48.0105 31.6595 48.056 26.6753C48.0517 25.714 48.0476 25.026 48.0433 24.1843V24.176C48.0086 22.5203 47.8646 21.5612 47.6328 19.1855C47.466 19.2411 47.2587 19.294 47.0615 19.294C45.482 19.2962 43.9628 18.6895 42.834 17.6C42.4397 17.2197 42.0597 16.8141 41.7845 16.3398H41.7803C41.5051 16.8141 41.2076 17.2197 40.8154 17.6C39.6866 18.6895 38.1674 19.2982 36.5879 19.2982C34.9456 19.2982 33.4565 18.6489 32.3688 17.6C31.9723 17.2197 31.6348 16.7869 31.3574 16.3148C31.0844 16.7869 30.7467 17.2197 30.3545 17.6C29.2257 18.6895 27.7065 19.2982 26.127 19.2982C26.0706 19.2982 26.0098 19.2962 25.9535 19.294C25.8971 19.2962 25.8384 19.2982 25.78 19.2982C24.2005 19.3003 22.6812 18.6895 21.5524 17.6C21.1581 17.2197 20.8203 16.7869 20.5495 16.3148ZM17.2614 22.7406V22.7448C18.8041 22.7469 20.1754 22.7458 21.874 24.5724C23.2095 24.4336 24.6039 24.3617 26 24.3637H26.0042C27.4003 24.3617 28.7947 24.4336 30.1302 24.5724C31.8289 22.7458 33.1959 22.7469 34.7386 22.7448H34.7428V22.7406C35.4708 22.7406 38.3875 22.7402 40.4176 28.3652L42.597 36.0845C44.2133 41.8249 42.0796 41.9636 39.4189 41.9679C35.4713 41.8226 33.2871 38.9986 33.2871 36.1721C31.1009 36.5246 28.5544 36.7021 26.0042 36.7021C23.4541 36.7021 20.9011 36.5246 18.7171 36.1721C18.7171 38.9986 16.533 41.8226 12.5853 41.9679C9.92245 41.9636 7.78666 41.8249 9.403 36.0845L11.5866 28.3652C13.6168 22.7402 16.5312 22.7406 17.2614 22.7406ZM26 26.9883C25.9978 26.9926 22.4791 30.1788 21.8486 31.3111L24.1507 31.2193V33.1971C24.1507 33.289 25.077 33.2565 26 33.2138C26.9252 33.2565 27.8493 33.289 27.8493 33.1971V31.2193L30.1514 31.3111C29.5209 30.1767 26 26.9883 26 26.9883Z" fill="#582A4C"/>
</svg>
