<svg width="69" height="69" viewBox="0 0 69 69" fill="none" xmlns="http://www.w3.org/2000/svg">
<path d="M34.375 0C53.3594 0 68.75 15.3906 68.75 34.375C68.75 53.3594 53.3594 68.75 34.375 68.75C15.3906 68.75 0 53.3594 0 34.375C0 15.3906 15.3906 0 34.375 0ZM46.2328 48.3875C46.8641 46.4484 49.8281 27.1141 50.1922 23.3031C50.3031 22.15 49.9375 21.3828 49.225 21.0391C48.3609 20.625 47.0828 20.8312 45.5969 21.3672C43.5609 22.1016 17.5375 33.15 16.0344 33.7906C14.6094 34.3969 13.2609 35.0562 13.2609 36.0141C13.2609 36.6875 13.6609 37.0656 14.7609 37.4578C15.9047 37.8656 18.7875 38.7391 20.4922 39.2094C22.1328 39.6625 23.9969 39.2687 25.0438 38.6187C26.1516 37.9297 38.9516 29.3672 39.8687 28.6156C40.7859 27.8656 41.5187 28.8266 40.7687 29.5781C40.0187 30.3281 31.2344 38.8547 30.075 40.0359C28.6672 41.4688 29.6656 42.9547 30.6109 43.55C31.6875 44.2297 39.4375 49.4266 40.6047 50.2609C41.7719 51.0953 42.9547 51.4734 44.0391 51.4734C45.1234 51.4719 45.6938 50.0437 46.2328 48.3875Z" fill="#582A4C"/>
</svg>
